<svg width="218" height="122" viewBox="0 0 218 122" fill="none" xmlns="http://www.w3.org/2000/svg">
<g clip-path="url(#clip0)">
<path d="M200.659 38.2162C200.469 38.2162 200.28 38.1529 200.028 38.1529C199.965 38.1529 199.839 38.1529 199.713 38.1529C199.902 37.7726 200.028 37.4557 200.154 37.1388C201.289 34.7305 202.866 32.5757 204.694 30.611C207.532 27.6323 210.811 25.1607 214.532 23.3227C215.541 22.8157 216.55 22.4355 217.622 22.0552C217.685 22.0552 217.748 21.9918 217.874 21.9918C217.811 22.4355 217.811 22.8791 217.748 23.2594C217.433 25.5409 216.739 27.6957 215.541 29.7238C212.955 34.0334 209.235 36.7586 204.316 37.836C203.37 38.0261 202.361 38.1529 201.352 38.2162C201.289 38.2162 201.226 38.2162 201.163 38.2796C201.037 38.2162 200.848 38.2162 200.659 38.2162Z" fill="#002369"/>
<path d="M184.137 18.3792C190.695 21.7381 195.614 26.8082 199.145 33.1459C198.199 34.6669 197.316 36.1246 196.433 37.5823C187.731 35.2373 182.749 26.6181 184.137 18.3792Z" fill="#00854F"/>
<path d="M201.163 30.7377C200.028 29.0266 198.767 27.4421 197.379 25.9211C197.758 25.4141 198.136 24.9071 198.514 24.4001C200.028 22.6255 201.794 21.1045 203.685 19.7102C206.586 17.6188 209.676 15.8442 213.018 14.5133C214.027 14.1331 215.099 13.8162 216.108 13.4359C216.108 13.4359 216.171 13.4359 216.234 13.4359C217.117 15.5273 217.685 17.7455 217.811 20.0271C211.253 21.9284 205.766 25.6042 201.163 30.7377Z" fill="#002369"/>
<path d="M184.515 16.4146C185.145 13.9429 186.217 11.6614 187.668 9.56995C192.776 11.6614 197.001 14.8936 200.469 19.1398C198.64 20.5341 196.938 22.0551 195.55 23.9564C193.911 22.372 192.208 20.9144 190.379 19.6468C188.551 18.4427 186.596 17.3019 184.515 16.4146Z" fill="#00854F"/>
<path d="M212.009 6.90808C213.397 8.42912 214.532 10.0135 215.478 11.7881C210.748 12.9289 206.46 15.147 202.424 17.7455C201.163 16.5413 199.902 15.3372 198.641 14.133C199.145 13.6894 199.713 13.1824 200.28 12.7387C202.929 10.6473 205.893 9.12626 208.983 7.92211C209.992 7.54185 211 7.28834 212.009 6.90808Z" fill="#002369"/>
<path d="M197.001 12.9288C194.416 11.0275 191.704 9.37968 188.614 8.2389C189.055 7.79527 189.434 7.28825 189.812 6.90799C190.884 5.70384 192.082 4.68981 193.407 3.73916C193.533 3.67579 193.659 3.61241 193.785 3.67579C195.992 4.37293 198.01 5.45033 199.839 6.84462C200.722 7.47838 201.541 8.2389 202.298 8.99942C202.361 9.0628 202.361 9.12618 202.424 9.18955C200.532 10.2036 198.704 11.4077 197.001 12.9288Z" fill="#00854F"/>
<path d="M210.811 5.76716C208.541 6.27417 206.46 7.09807 204.379 8.11209C203.307 7.09807 202.172 6.2108 200.848 5.32352C201.352 5.00664 201.857 4.68976 202.361 4.43625C203.748 3.67573 205.199 3.16872 206.712 2.78846C206.901 2.72508 207.028 2.78846 207.217 2.85184C208.415 3.67573 209.55 4.563 210.622 5.51365C210.685 5.64041 210.748 5.70378 210.811 5.76716Z" fill="#002369"/>
<path d="M205.514 1.83789C203.244 2.40828 201.226 3.23218 199.334 4.37296C197.947 3.73919 196.559 3.10542 195.172 2.47166C195.235 2.40828 195.298 2.3449 195.424 2.3449C197.064 1.33088 198.83 0.506982 200.721 -3.08529e-05C200.784 -3.08529e-05 200.911 -0.0634075 200.974 -3.08529e-05C202.487 0.443606 203.938 0.950619 205.262 1.71114C205.325 1.77451 205.451 1.77451 205.514 1.83789Z" fill="#00854F"/>
<path d="M91.8158 22.3087C92.0681 22.182 92.2573 22.2453 92.4464 22.2453C97.9327 22.2453 103.419 22.2453 108.905 22.2453C111.995 22.2453 115.022 22.4988 117.986 23.4495C120.256 24.21 122.337 25.2874 123.914 27.1253C125.742 29.3435 126.436 31.942 126.121 34.7939C125.679 39.4204 122.968 42.3357 118.743 43.9835C118.49 44.0469 118.301 44.1736 118.049 44.237C118.049 44.237 117.986 44.237 117.923 44.3004C121.328 49.1804 124.733 54.1238 128.202 59.0671C127.067 59.384 125.995 59.5742 124.923 59.7009C121.959 60.0178 119.121 59.8277 116.283 58.8136C112.815 57.5461 110.166 55.3279 108.085 52.3492C106.509 50.131 105.374 47.6594 104.428 45.0609C105.563 44.8074 106.572 44.4272 107.581 43.9201C111.175 42.0188 112.941 38.9768 112.815 34.9207C112.689 30.4843 109.157 26.9986 104.869 26.9986C103.608 37.7092 102.41 48.4199 101.149 59.1305C96.5454 59.1305 92.005 59.1305 87.4016 59.1305C88.852 46.8355 90.3655 34.5404 91.8158 22.3087Z" fill="#002369"/>
<path d="M24.9719 36.1248C21.5035 38.9767 19.1072 42.3991 17.9091 46.5819C16.7109 50.8282 17.1524 55.011 18.7289 59.1305C12.4859 59.1305 6.30597 59.1305 0.0629883 59.1305C7.25188 46.8355 14.3777 34.6038 21.5035 22.3721C25.9178 22.3721 30.3951 22.3721 34.8724 22.3721C38.5929 34.6038 42.2504 46.8355 45.971 59.1305C40.9892 59.1305 36.0074 59.1305 31.0257 59.1305C28.9447 51.4619 26.9898 43.8567 24.9719 36.1248Z" fill="#002369"/>
<path d="M65.2043 26.9985C63.9431 37.7091 62.745 48.3564 61.4838 59.067C56.9434 59.067 52.34 59.067 47.7366 59.067C49.187 46.8353 50.7004 34.5403 52.1508 22.3086C52.403 22.1818 52.6553 22.2452 52.8445 22.2452C58.1416 22.2452 63.4386 22.1818 68.7357 22.2452C72.2671 22.2452 75.7985 22.6888 79.0776 24.1465C82.0415 25.4774 84.4378 27.4421 85.5098 30.6109C87.0232 35.1107 86.2665 39.3569 83.4288 43.1595C81.2847 46.0748 78.2578 47.6592 74.7895 48.4831C71.5734 49.2436 68.2943 49.1169 65.0151 48.5465C64.889 48.5465 64.7629 48.4831 64.5737 48.4197C65.5827 48.1029 66.5286 47.786 67.3484 47.2156C71.0689 44.934 72.8977 41.5751 73.1499 37.2655C73.2761 34.5403 72.5824 32.0686 70.8798 29.9138C69.6186 28.3294 67.979 27.252 65.898 26.9351C65.6457 26.9985 65.4566 26.9351 65.2043 26.9985Z" fill="#002369"/>
<path d="M181.173 48.7366C180.416 52.2224 179.659 55.6447 178.966 59.067C169.759 59.067 160.552 59.067 151.282 59.067C152.669 46.772 154.12 34.5403 155.507 22.3086C159.984 22.3086 164.399 22.3086 168.939 22.3086C167.867 32.0052 166.732 41.6385 165.66 51.3351C168.371 52.0956 171.02 52.4759 173.732 52.0322C176.443 51.5886 178.839 50.3844 181.173 48.7366Z" fill="#002369"/>
<path d="M144.156 59.0671C139.49 59.0671 134.886 59.0671 130.22 59.0671C131.607 46.772 133.058 34.5403 134.445 22.2452C139.048 22.2452 143.589 22.2452 148.318 22.2452C146.931 34.5403 145.544 46.772 144.156 59.0671Z" fill="#002369"/>
<path d="M23.963 113.127C24.1522 113.127 24.3413 113.191 24.5305 113.254C24.7197 113.317 24.9089 113.444 25.035 113.634L28.0619 116.803C26.7376 118.514 25.0981 119.845 23.0801 120.732C21.0622 121.62 18.729 122.063 16.0174 122.063C13.4949 122.063 11.2878 121.62 9.33295 120.796C7.37807 119.972 5.67544 118.768 4.28811 117.247C2.90078 115.726 1.82875 113.951 1.13509 111.923C0.378363 109.832 0 107.613 0 105.205C0 102.733 0.441423 100.515 1.26121 98.4238C2.081 96.3324 3.27914 94.5578 4.79259 93.1002C6.30605 91.5791 8.1348 90.4384 10.2158 89.6145C12.2968 88.7906 14.63 88.3469 17.1524 88.3469C18.4137 88.3469 19.5487 88.4737 20.6208 88.6638C21.6928 88.8539 22.7018 89.1708 23.6477 89.5511C24.5936 89.9313 25.4764 90.375 26.2331 90.9454C27.0529 91.4524 27.7466 92.0862 28.3772 92.7199L25.7917 96.2056C25.6025 96.3958 25.4134 96.5859 25.2242 96.776C24.9719 96.9661 24.6566 97.0295 24.2783 97.0295C24.026 97.0295 23.7738 96.9661 23.5215 96.8394C23.2693 96.7126 23.0171 96.5859 22.7648 96.3958C22.5126 96.2056 22.1973 96.0155 21.882 95.8254C21.5667 95.6352 21.1883 95.4451 20.7469 95.255C20.3055 95.0649 19.801 94.9381 19.1704 94.8113C18.6028 94.6846 17.9092 94.6212 17.0894 94.6212C15.7021 94.6212 14.4408 94.8747 13.3058 95.3817C12.1707 95.8887 11.1617 96.5859 10.3419 97.4732C9.52213 98.3604 8.89152 99.5012 8.4501 100.769C8.00868 102.036 7.75644 103.494 7.75644 105.142C7.75644 106.853 8.00868 108.311 8.4501 109.641C8.89152 110.972 9.52213 112.05 10.3419 112.937C11.1617 113.824 12.0445 114.521 13.1166 114.965C14.1886 115.409 15.3237 115.662 16.5218 115.662C17.2155 115.662 17.8461 115.599 18.4137 115.535C18.9812 115.472 19.4857 115.345 19.9902 115.155C20.4946 114.965 20.9361 114.775 21.3775 114.521C21.8189 114.268 22.2603 113.951 22.7018 113.507C22.8909 113.381 23.0801 113.254 23.2693 113.127C23.5216 113.191 23.7107 113.127 23.963 113.127ZM63.4388 105.142C63.4388 107.55 63.0605 109.768 62.2407 111.796C61.4209 113.824 60.2858 115.662 58.7723 117.12C57.2589 118.641 55.4932 119.845 53.4122 120.669C51.3312 121.556 48.998 121.937 46.4125 121.937C43.8901 121.937 41.5568 121.493 39.4128 120.669C37.3318 119.782 35.503 118.641 33.9896 117.12C32.4761 115.599 31.341 113.824 30.5213 111.796C29.7015 109.768 29.3231 107.55 29.3231 105.142C29.3231 102.733 29.7015 100.515 30.5213 98.4872C31.341 96.4591 32.4761 94.6846 33.9896 93.1636C35.503 91.6425 37.2687 90.4384 39.4128 89.6145C41.4938 88.7272 43.827 88.3469 46.4125 88.3469C48.9349 88.3469 51.2682 88.7906 53.4122 89.6778C55.4932 90.5651 57.322 91.7059 58.7723 93.2269C60.2858 94.748 61.4209 96.5225 62.2407 98.5506C62.9974 100.579 63.4388 102.797 63.4388 105.142ZM55.6193 105.142C55.6193 103.494 55.4301 102.036 54.9887 100.769C54.5473 99.4378 53.9798 98.3604 53.16 97.4732C52.3402 96.5859 51.3943 95.8887 50.2592 95.3817C49.1241 94.8747 47.7998 94.6846 46.3494 94.6846C44.899 94.6846 43.5748 94.9381 42.4397 95.3817C41.3046 95.8887 40.2956 96.5859 39.5389 97.4732C38.7191 98.3604 38.1516 99.5012 37.7102 100.769C37.2687 102.1 37.0795 103.557 37.0795 105.142C37.0795 106.79 37.2687 108.247 37.7102 109.578C38.1516 110.909 38.7191 111.986 39.5389 112.874C40.3587 113.761 41.3046 114.458 42.4397 114.965C43.5748 115.472 44.899 115.662 46.3494 115.662C47.7998 115.662 49.1241 115.409 50.2592 114.965C51.3943 114.458 52.3402 113.824 53.16 112.874C53.9798 111.986 54.5473 110.846 54.9887 109.578C55.4301 108.247 55.6193 106.79 55.6193 105.142ZM72.7718 88.7272C73.024 88.7272 73.2132 88.7906 73.4024 88.9173C73.5916 88.9807 73.7807 89.1074 73.9069 89.2976C74.096 89.4243 74.2852 89.6778 74.4744 89.9313L90.0503 109.768C89.9873 109.134 89.9242 108.501 89.9242 107.93C89.9242 107.36 89.8612 106.79 89.8612 106.219V88.7906H96.5456V121.683H92.5728C92.0052 121.683 91.5007 121.62 91.0593 121.43C90.6809 121.239 90.2395 120.923 89.8612 120.415L74.4113 100.769C74.4744 101.339 74.4744 101.91 74.5375 102.48C74.5375 103.05 74.6005 103.557 74.6005 104.001V121.683H67.9161V88.6638H71.952C72.2673 88.6638 72.5195 88.6638 72.7718 88.7272ZM107.707 88.7272C107.96 88.7272 108.149 88.7906 108.338 88.9173C108.527 88.9807 108.716 89.1074 108.842 89.2976C109.032 89.4243 109.221 89.6778 109.41 89.9313L124.986 109.768C124.923 109.134 124.86 108.501 124.86 107.93C124.86 107.36 124.797 106.79 124.797 106.219V88.7906H131.481V121.683H127.508C126.941 121.683 126.436 121.62 125.995 121.43C125.616 121.239 125.175 120.923 124.797 120.415L109.347 100.769C109.41 101.339 109.41 101.91 109.473 102.48C109.473 103.05 109.536 103.557 109.536 104.001V121.683H102.852V88.6638H106.887C107.203 88.6638 107.455 88.6638 107.707 88.7272ZM158.912 88.6638V94.5578H145.417V102.226H155.759V107.867H145.417V115.726H158.912V121.62H137.787V88.6004H158.912V88.6638ZM185.272 113.127C185.461 113.127 185.65 113.191 185.839 113.254C186.028 113.317 186.218 113.444 186.344 113.634L189.371 116.803C188.046 118.514 186.407 119.845 184.389 120.732C182.371 121.62 180.038 122.063 177.326 122.063C174.804 122.063 172.596 121.62 170.642 120.796C168.687 119.972 166.984 118.768 165.597 117.247C164.209 115.726 163.137 113.951 162.444 111.923C161.687 109.832 161.309 107.613 161.309 105.205C161.309 102.733 161.75 100.515 162.57 98.4238C163.39 96.3324 164.588 94.5578 166.101 93.1002C167.615 91.5791 169.443 90.4384 171.524 89.6145C173.605 88.7906 175.939 88.3469 178.461 88.3469C179.722 88.3469 180.857 88.4737 181.929 88.6638C183.001 88.8539 184.01 89.1708 184.956 89.5511C185.902 89.9313 186.785 90.375 187.542 90.9454C188.362 91.4524 189.055 92.0862 189.686 92.7199L187.1 96.2056C186.911 96.3958 186.722 96.5859 186.533 96.776C186.281 96.9661 185.965 97.0295 185.587 97.0295C185.335 97.0295 185.082 96.9661 184.83 96.8394C184.578 96.7126 184.326 96.5859 184.073 96.3958C183.821 96.2056 183.506 96.0155 183.191 95.8254C182.875 95.6352 182.497 95.4451 182.056 95.255C181.614 95.0649 181.11 94.9381 180.479 94.8113C179.911 94.6846 179.218 94.6212 178.398 94.6212C177.011 94.6212 175.749 94.8747 174.614 95.3817C173.479 95.8887 172.47 96.5859 171.651 97.4732C170.831 98.3604 170.2 99.5012 169.759 100.769C169.317 102.036 169.065 103.494 169.065 105.142C169.065 106.853 169.317 108.311 169.759 109.641C170.2 110.972 170.831 112.05 171.651 112.937C172.47 113.824 173.353 114.521 174.425 114.965C175.497 115.409 176.632 115.662 177.83 115.662C178.524 115.662 179.155 115.599 179.722 115.535C180.29 115.472 180.794 115.345 181.299 115.155C181.803 114.965 182.245 114.775 182.686 114.521C183.128 114.268 183.569 113.951 184.01 113.507C184.2 113.381 184.389 113.254 184.578 113.127C184.83 113.191 185.082 113.127 185.272 113.127ZM218 88.6638V94.748H208.73V121.683H201.163V94.748H191.956V88.6638H218Z" fill="url(#paint0_linear)"/>
</g>
<defs>
<linearGradient id="paint0_linear" x1="0" y1="105.165" x2="217.995" y2="105.165" gradientUnits="userSpaceOnUse">
<stop stop-color="#00854F"/>
<stop offset="1" stop-color="#CAD800"/>
</linearGradient>
<clipPath id="clip0">
<rect width="218" height="122" fill="white"/>
</clipPath>
</defs>
</svg>
