<svg width="219" height="122" viewBox="0 0 219 122" fill="none" xmlns="http://www.w3.org/2000/svg">
<g clip-path="url(#clip0)">
<path d="M201.087 38.2162C200.897 38.2162 200.707 38.1529 200.455 38.1529C200.391 38.1529 200.265 38.1529 200.139 38.1529C200.328 37.7726 200.455 37.4557 200.581 37.1388C201.719 34.7305 203.298 32.5757 205.131 30.611C207.975 27.6323 211.261 25.1607 214.99 23.3227C216.001 22.8157 217.012 22.4355 218.086 22.0552C218.149 22.0552 218.212 21.9918 218.339 21.9918C218.276 22.4355 218.276 22.8791 218.212 23.2594C217.896 25.5409 217.201 27.6957 216.001 29.7238C213.41 34.0334 209.681 36.7586 204.752 37.836C203.804 38.0261 202.793 38.1529 201.782 38.2162C201.719 38.2162 201.655 38.2162 201.592 38.2796C201.466 38.2162 201.276 38.2162 201.087 38.2162Z" fill="white"/>
<path d="M184.53 18.3792C191.102 21.7381 196.031 26.8082 199.57 33.1459C198.622 34.6669 197.737 36.1246 196.853 37.5823C188.132 35.2373 183.139 26.6181 184.53 18.3792Z" fill="white"/>
<path d="M201.592 30.7377C200.454 29.0266 199.191 27.4421 197.8 25.9211C198.179 25.4141 198.559 24.9071 198.938 24.4001C200.454 22.6255 202.224 21.1045 204.12 19.7102C207.027 17.6188 210.123 15.8442 213.473 14.5133C214.484 14.1331 215.558 13.8162 216.569 13.4359C216.569 13.4359 216.632 13.4359 216.696 13.4359C217.58 15.5273 218.149 17.7455 218.275 20.0271C211.703 21.9284 206.205 25.6042 201.592 30.7377Z" fill="white"/>
<path d="M184.908 16.4146C185.54 13.9429 186.614 11.6614 188.068 9.56995C193.187 11.6614 197.421 14.8936 200.897 19.1398C199.064 20.5341 197.358 22.0551 195.967 23.9564C194.324 22.372 192.618 20.9144 190.785 19.6468C188.953 18.4427 186.994 17.3019 184.908 16.4146Z" fill="white"/>
<path d="M212.462 6.90808C213.852 8.42912 214.99 10.0135 215.938 11.7881C211.198 12.9289 206.901 15.147 202.856 17.7455C201.592 16.5413 200.328 15.3372 199.064 14.133C199.57 13.6894 200.139 13.1824 200.708 12.7387C203.362 10.6473 206.332 9.12626 209.428 7.92211C210.44 7.54185 211.451 7.28834 212.462 6.90808Z" fill="white"/>
<path d="M197.422 12.9288C194.831 11.0275 192.113 9.37968 189.017 8.2389C189.459 7.79527 189.838 7.28825 190.217 6.90799C191.292 5.70384 192.492 4.68981 193.819 3.73916C193.946 3.67579 194.072 3.61241 194.199 3.67579C196.41 4.37293 198.433 5.45033 200.265 6.84462C201.15 7.47838 201.972 8.2389 202.73 8.99942C202.793 9.0628 202.793 9.12618 202.856 9.18955C200.96 10.2036 199.128 11.4077 197.422 12.9288Z" fill="white"/>
<path d="M211.261 5.76716C208.986 6.27417 206.9 7.09807 204.815 8.11209C203.74 7.09807 202.603 6.2108 201.276 5.32352C201.781 5.00664 202.287 4.68976 202.793 4.43625C204.183 3.67573 205.636 3.16872 207.153 2.78846C207.343 2.72508 207.469 2.78846 207.659 2.85184C208.859 3.67573 209.997 4.563 211.071 5.51365C211.134 5.64041 211.197 5.70378 211.261 5.76716Z" fill="white"/>
<path d="M205.952 1.83789C203.677 2.40828 201.655 3.23218 199.759 4.37296C198.369 3.73919 196.979 3.10542 195.588 2.47166C195.652 2.40828 195.715 2.3449 195.841 2.3449C197.484 1.33088 199.254 0.506982 201.15 -3.08529e-05C201.213 -3.08529e-05 201.339 -0.0634075 201.402 -3.08529e-05C202.919 0.443606 204.373 0.950619 205.7 1.71114C205.763 1.77451 205.889 1.77451 205.952 1.83789Z" fill="white"/>
<path d="M92.0115 22.3087C92.2643 22.182 92.4539 22.2453 92.6435 22.2453C98.1415 22.2453 103.639 22.2453 109.137 22.2453C112.234 22.2453 115.267 22.4988 118.237 23.4495C120.512 24.21 122.598 25.2874 124.178 27.1253C126.01 29.3435 126.706 31.942 126.39 34.7939C125.947 39.4204 123.23 42.3357 118.996 43.9835C118.743 44.0469 118.553 44.1736 118.301 44.237C118.301 44.237 118.237 44.237 118.174 44.3004C121.587 49.1804 124.999 54.1238 128.475 59.0671C127.338 59.384 126.263 59.5742 125.189 59.7009C122.219 60.0178 119.375 59.8277 116.531 58.8136C113.055 57.5461 110.401 55.3279 108.316 52.3492C106.736 50.131 105.598 47.6594 104.651 45.0609C105.788 44.8074 106.799 44.4272 107.81 43.9201C111.412 42.0188 113.182 38.9768 113.055 34.9207C112.929 30.4843 109.39 26.9986 105.093 26.9986C103.829 37.7092 102.628 48.4199 101.364 59.1305C96.7512 59.1305 92.2011 59.1305 87.5879 59.1305C89.0414 46.8355 90.5581 34.5404 92.0115 22.3087Z" fill="white"/>
<path d="M25.025 36.1248C21.5493 38.9767 19.1479 42.3991 17.9472 46.5819C16.7465 50.8282 17.1888 55.011 18.7687 59.1305C12.5124 59.1305 6.31929 59.1305 0.0629883 59.1305C7.26722 46.8355 14.4083 34.6038 21.5493 22.3721C25.9729 22.3721 30.4598 22.3721 34.9466 22.3721C38.6751 34.6038 42.3404 46.8355 46.0689 59.1305C41.0765 59.1305 36.0841 59.1305 31.0917 59.1305C29.0063 51.4619 27.0472 43.8567 25.025 36.1248Z" fill="white"/>
<path d="M65.3434 26.9985C64.0795 37.7091 62.8788 48.3564 61.6149 59.067C57.0649 59.067 52.4516 59.067 47.8384 59.067C49.2919 46.8353 50.8085 34.5403 52.262 22.3086C52.5148 22.1818 52.7676 22.2452 52.9572 22.2452C58.2656 22.2452 63.5739 22.1818 68.8823 22.2452C72.4212 22.2452 75.9602 22.6888 79.2463 24.1465C82.2165 25.4774 84.6179 27.4421 85.6922 30.6109C87.2089 35.1107 86.4505 39.3569 83.6068 43.1595C81.4581 46.0748 78.4248 47.6592 74.949 48.4831C71.7261 49.2436 68.44 49.1169 65.1538 48.5465C65.0274 48.5465 64.901 48.4831 64.7114 48.4197C65.7226 48.1029 66.6705 47.786 67.492 47.2156C71.2205 44.934 73.0532 41.5751 73.306 37.2655C73.4324 34.5403 72.7372 32.0686 71.0309 29.9138C69.767 28.3294 68.124 27.252 66.0385 26.9351C65.7858 26.9985 65.5962 26.9351 65.3434 26.9985Z" fill="white"/>
<path d="M181.559 48.7366C180.801 52.2224 180.043 55.6447 179.348 59.067C170.121 59.067 160.895 59.067 151.605 59.067C152.995 46.772 154.449 34.5403 155.839 22.3086C160.326 22.3086 164.75 22.3086 169.3 22.3086C168.225 32.0052 167.088 41.6385 166.013 51.3351C168.731 52.0956 171.385 52.4759 174.102 52.0322C176.82 51.5886 179.221 50.3844 181.559 48.7366Z" fill="white"/>
<path d="M144.464 59.0671C139.787 59.0671 135.174 59.0671 130.498 59.0671C131.888 46.772 133.341 34.5403 134.732 22.2452C139.345 22.2452 143.895 22.2452 148.635 22.2452C147.244 34.5403 145.854 46.772 144.464 59.0671Z" fill="white"/>
<path d="M24.0141 113.127C24.2037 113.127 24.3933 113.191 24.5829 113.254C24.7724 113.317 24.962 113.444 25.0884 113.634L28.1218 116.803C26.7947 118.514 25.1516 119.845 23.1294 120.732C21.1071 121.62 18.7689 122.063 16.0515 122.063C13.5237 122.063 11.3119 121.62 9.35286 120.796C7.39381 119.972 5.68755 118.768 4.29726 117.247C2.90697 115.726 1.83265 113.951 1.13751 111.923C0.37917 109.832 0 107.613 0 105.205C0 102.733 0.442365 100.515 1.2639 98.4238C2.08543 96.3324 3.28614 94.5578 4.80282 93.1002C6.3195 91.5791 8.15215 90.4384 10.2376 89.6145C12.323 88.7906 14.6612 88.3469 17.189 88.3469C18.4529 88.3469 19.5904 88.4737 20.6648 88.6638C21.7391 88.8539 22.7502 89.1708 23.6981 89.5511C24.646 89.9313 25.5308 90.375 26.2891 90.9454C27.1107 91.4524 27.8058 92.0862 28.4377 92.7199L25.8468 96.2056C25.6572 96.3958 25.4676 96.5859 25.278 96.776C25.0252 96.9661 24.7092 97.0295 24.3301 97.0295C24.0773 97.0295 23.8245 96.9661 23.5717 96.8394C23.319 96.7126 23.0662 96.5859 22.8134 96.3958C22.5606 96.2056 22.2446 96.0155 21.9287 95.8254C21.6127 95.6352 21.2335 95.4451 20.7912 95.255C20.3488 95.0649 19.8432 94.9381 19.2113 94.8113C18.6425 94.6846 17.9474 94.6212 17.1258 94.6212C15.7356 94.6212 14.4717 94.8747 13.3341 95.3817C12.1966 95.8887 11.1855 96.5859 10.364 97.4732C9.54244 98.3604 8.91049 99.5012 8.46813 100.769C8.02576 102.036 7.77298 103.494 7.77298 105.142C7.77298 106.853 8.02576 108.311 8.46813 109.641C8.91049 110.972 9.54244 112.05 10.364 112.937C11.1855 113.824 12.0702 114.521 13.1446 114.965C14.2189 115.409 15.3564 115.662 16.5571 115.662C17.2522 115.662 17.8842 115.599 18.4529 115.535C19.0217 115.472 19.5273 115.345 20.0328 115.155C20.5384 114.965 20.9807 114.775 21.4231 114.521C21.8655 114.268 22.3078 113.951 22.7502 113.507C22.9398 113.381 23.1294 113.254 23.319 113.127C23.5717 113.191 23.7613 113.127 24.0141 113.127ZM63.5742 105.142C63.5742 107.55 63.195 109.768 62.3735 111.796C61.5519 113.824 60.4144 115.662 58.8977 117.12C57.3811 118.641 55.6116 119.845 53.5262 120.669C51.4407 121.556 49.1025 121.937 46.5115 121.937C43.9837 121.937 41.6455 121.493 39.4969 120.669C37.4114 119.782 35.5788 118.641 34.0621 117.12C32.5454 115.599 31.4079 113.824 30.5864 111.796C29.7648 109.768 29.3857 107.55 29.3857 105.142C29.3857 102.733 29.7648 100.515 30.5864 98.4872C31.4079 96.4591 32.5454 94.6846 34.0621 93.1636C35.5788 91.6425 37.3482 90.4384 39.4969 89.6145C41.5823 88.7272 43.9205 88.3469 46.5115 88.3469C49.0393 88.3469 51.3775 88.7906 53.5262 89.6778C55.6116 90.5651 57.4442 91.7059 58.8977 93.2269C60.4144 94.748 61.5519 96.5225 62.3735 98.5506C63.1318 100.579 63.5742 102.797 63.5742 105.142ZM55.738 105.142C55.738 103.494 55.5484 102.036 55.106 100.769C54.6637 99.4378 54.0949 98.3604 53.2734 97.4732C52.4518 96.5859 51.5039 95.8887 50.3664 95.3817C49.2289 94.8747 47.9018 94.6846 46.4483 94.6846C44.9948 94.6846 43.6677 94.9381 42.5302 95.3817C41.3927 95.8887 40.3816 96.5859 39.6233 97.4732C38.8017 98.3604 38.233 99.5012 37.7906 100.769C37.3482 102.1 37.1587 103.557 37.1587 105.142C37.1587 106.79 37.3482 108.247 37.7906 109.578C38.233 110.909 38.8017 111.986 39.6233 112.874C40.4448 113.761 41.3927 114.458 42.5302 114.965C43.6677 115.472 44.9948 115.662 46.4483 115.662C47.9018 115.662 49.2289 115.409 50.3664 114.965C51.5039 114.458 52.4518 113.824 53.2734 112.874C54.0949 111.986 54.6637 110.846 55.106 109.578C55.5484 108.247 55.738 106.79 55.738 105.142ZM72.927 88.7272C73.1798 88.7272 73.3694 88.7906 73.559 88.9173C73.7486 88.9807 73.9381 89.1074 74.0645 89.2976C74.2541 89.4243 74.4437 89.6778 74.6333 89.9313L90.2425 109.768C90.1793 109.134 90.1161 108.501 90.1161 107.93C90.1161 107.36 90.0529 106.79 90.0529 106.219V88.7906H96.7515V121.683H92.7703C92.2015 121.683 91.6959 121.62 91.2536 121.43C90.8744 121.239 90.432 120.923 90.0529 120.415L74.5701 100.769C74.6333 101.339 74.6333 101.91 74.6965 102.48C74.6965 103.05 74.7597 103.557 74.7597 104.001V121.683H68.061V88.6638H72.1055C72.4215 88.6638 72.6742 88.6638 72.927 88.7272ZM107.937 88.7272C108.19 88.7272 108.379 88.7906 108.569 88.9173C108.759 88.9807 108.948 89.1074 109.075 89.2976C109.264 89.4243 109.454 89.6778 109.643 89.9313L125.252 109.768C125.189 109.134 125.126 108.501 125.126 107.93C125.126 107.36 125.063 106.79 125.063 106.219V88.7906H131.762V121.683H127.78C127.212 121.683 126.706 121.62 126.264 121.43C125.884 121.239 125.442 120.923 125.063 120.415L109.58 100.769C109.643 101.339 109.643 101.91 109.707 102.48C109.707 103.05 109.77 103.557 109.77 104.001V121.683H103.071V88.6638H107.116C107.431 88.6638 107.684 88.6638 107.937 88.7272ZM159.251 88.6638V94.5578H145.728V102.226H156.092V107.867H145.728V115.726H159.251V121.62H138.081V88.6004H159.251V88.6638ZM185.667 113.127C185.856 113.127 186.046 113.191 186.236 113.254C186.425 113.317 186.615 113.444 186.741 113.634L189.775 116.803C188.447 118.514 186.804 119.845 184.782 120.732C182.76 121.62 180.422 122.063 177.704 122.063C175.177 122.063 172.965 121.62 171.006 120.796C169.047 119.972 167.34 118.768 165.95 117.247C164.56 115.726 163.485 113.951 162.79 111.923C162.032 109.832 161.653 107.613 161.653 105.205C161.653 102.733 162.095 100.515 162.917 98.4238C163.738 96.3324 164.939 94.5578 166.456 93.1002C167.972 91.5791 169.805 90.4384 171.89 89.6145C173.976 88.7906 176.314 88.3469 178.842 88.3469C180.106 88.3469 181.243 88.4737 182.318 88.6638C183.392 88.8539 184.403 89.1708 185.351 89.5511C186.299 89.9313 187.184 90.375 187.942 90.9454C188.763 91.4524 189.459 92.0862 190.091 92.7199L187.5 96.2056C187.31 96.3958 187.12 96.5859 186.931 96.776C186.678 96.9661 186.362 97.0295 185.983 97.0295C185.73 97.0295 185.477 96.9661 185.225 96.8394C184.972 96.7126 184.719 96.5859 184.466 96.3958C184.213 96.2056 183.897 96.0155 183.581 95.8254C183.265 95.6352 182.886 95.4451 182.444 95.255C182.002 95.0649 181.496 94.9381 180.864 94.8113C180.295 94.6846 179.6 94.6212 178.779 94.6212C177.388 94.6212 176.124 94.8747 174.987 95.3817C173.849 95.8887 172.838 96.5859 172.017 97.4732C171.195 98.3604 170.563 99.5012 170.121 100.769C169.679 102.036 169.426 103.494 169.426 105.142C169.426 106.853 169.679 108.311 170.121 109.641C170.563 110.972 171.195 112.05 172.017 112.937C172.838 113.824 173.723 114.521 174.797 114.965C175.872 115.409 177.009 115.662 178.21 115.662C178.905 115.662 179.537 115.599 180.106 115.535C180.674 115.472 181.18 115.345 181.686 115.155C182.191 114.965 182.634 114.775 183.076 114.521C183.518 114.268 183.961 113.951 184.403 113.507C184.593 113.381 184.782 113.254 184.972 113.127C185.225 113.191 185.477 113.127 185.667 113.127ZM218.465 88.6638V94.748H209.175V121.683H201.592V94.748H192.366V88.6638H218.465Z" fill="white"/>
</g>
<defs>
<clipPath id="clip0">
<rect width="218.465" height="122" fill="white"/>
</clipPath>
</defs>
</svg>
