<svg width="167" height="20" viewBox="0 0 167 20" fill="none" xmlns="http://www.w3.org/2000/svg">
<g clip-path="url(#clip0)">
<path d="M68.98 12.7754C68.9149 12.7754 68.8499 12.7542 68.7632 12.7542C68.7415 12.7542 68.6981 12.7542 68.6548 12.7542C68.7198 12.6271 68.7632 12.5212 68.8065 12.4152C69.1967 11.6102 69.7387 10.8898 70.3674 10.233C71.3429 9.23728 72.4702 8.41101 73.7492 7.7966C74.096 7.62711 74.4429 7.49999 74.8114 7.37287C74.8331 7.37287 74.8548 7.35168 74.8981 7.35168C74.8764 7.49999 74.8764 7.64829 74.8548 7.77541C74.7464 8.53813 74.5079 9.25846 74.096 9.93643C73.2072 11.3771 71.9282 12.2881 70.2373 12.6483C69.9121 12.7119 69.5653 12.7542 69.2184 12.7754C69.1967 12.7754 69.1751 12.7754 69.1534 12.7966C69.11 12.7754 69.045 12.7754 68.98 12.7754Z" fill="white"/>
<path d="M63.3003 6.14404C65.5549 7.26692 67.2458 8.96184 68.4598 11.0805C68.1346 11.589 67.8311 12.0762 67.5276 12.5635C64.536 11.7796 62.8234 8.89828 63.3003 6.14404Z" fill="white"/>
<path d="M69.1537 10.2755C68.7635 9.70344 68.3299 9.17378 67.853 8.66531C67.9831 8.49582 68.1132 8.32632 68.2432 8.15683C68.7635 7.56361 69.3705 7.05514 70.0209 6.58904C71.0181 5.88988 72.0803 5.29666 73.2292 4.85175C73.5761 4.72463 73.9446 4.6187 74.2915 4.49158C74.2915 4.49158 74.3132 4.49158 74.3348 4.49158C74.6383 5.19073 74.8334 5.93226 74.8768 6.69497C72.6223 7.33056 70.7362 8.55937 69.1537 10.2755Z" fill="white"/>
<path d="M63.4302 5.48735C63.647 4.66108 64.0155 3.89837 64.5141 3.19922C66.27 3.89837 67.7225 4.97888 68.9148 6.39837C68.2861 6.86447 67.7008 7.37295 67.2239 8.00854C66.6602 7.47888 66.0749 6.99159 65.4463 6.56786C64.8176 6.16532 64.1456 5.78397 63.4302 5.48735Z" fill="white"/>
<path d="M72.8819 2.30933C73.3589 2.8178 73.7491 3.34746 74.0742 3.94068C72.4484 4.32204 70.9742 5.06356 69.5868 5.93221C69.1533 5.52967 68.7197 5.12712 68.2861 4.72458C68.4596 4.57628 68.6547 4.40678 68.8498 4.25848C69.7603 3.55933 70.7791 3.05085 71.8414 2.64831C72.1882 2.52119 72.5351 2.43644 72.8819 2.30933Z" fill="white"/>
<path d="M67.7226 4.32209C66.8338 3.6865 65.9016 3.13565 64.8394 2.75429C64.9911 2.60599 65.1212 2.4365 65.2512 2.30938C65.6198 1.90683 66.0317 1.56785 66.4869 1.25005C66.5303 1.22887 66.5736 1.20768 66.617 1.22887C67.3757 1.46192 68.0694 1.82209 68.6981 2.28819C69.0016 2.50005 69.2834 2.75429 69.5435 3.00853C69.5652 3.02972 69.5652 3.0509 69.5869 3.07209C68.9365 3.41107 68.3079 3.81361 67.7226 4.32209Z" fill="white"/>
<path d="M72.4701 1.928C71.6897 2.09749 70.9743 2.37292 70.2589 2.7119C69.8904 2.37292 69.5002 2.0763 69.0449 1.77969C69.2183 1.67376 69.3918 1.56783 69.5652 1.48308C70.0421 1.22885 70.5407 1.05936 71.061 0.932238C71.126 0.911051 71.1694 0.932238 71.2344 0.953424C71.6463 1.22885 72.0365 1.52546 72.405 1.84325C72.4267 1.88563 72.4484 1.90681 72.4701 1.928Z" fill="white"/>
<path d="M70.6495 0.614424C69.8691 0.805101 69.1754 1.08053 68.525 1.46188C68.0481 1.25002 67.5712 1.03815 67.0942 0.826288C67.1159 0.805101 67.1376 0.783915 67.181 0.783915C67.7446 0.444932 68.3516 0.169508 69.0019 1.67806e-05C69.0236 1.67806e-05 69.067 -0.0211697 69.0886 1.67806e-05C69.6089 0.148322 70.1075 0.317813 70.5628 0.572051C70.5844 0.593237 70.6278 0.593237 70.6495 0.614424Z" fill="white"/>
<path d="M31.5634 7.45764C31.6501 7.41526 31.7151 7.43645 31.7802 7.43645C33.6662 7.43645 35.5522 7.43645 37.4382 7.43645C38.5004 7.43645 39.541 7.52119 40.5599 7.83899C41.3403 8.09323 42.0557 8.4534 42.5976 9.0678C43.2263 9.80933 43.4647 10.678 43.3564 11.6314C43.2046 13.178 42.2724 14.1526 40.82 14.7034C40.7333 14.7246 40.6682 14.767 40.5815 14.7881C40.5815 14.7881 40.5599 14.7881 40.5382 14.8093C41.7088 16.4407 42.8794 18.0932 44.0717 19.7458C43.6815 19.8517 43.313 19.9153 42.9445 19.9576C41.9256 20.0636 40.9501 20 39.9745 19.661C38.7822 19.2373 37.8717 18.4958 37.1564 17.5C36.6144 16.7585 36.2242 15.9322 35.899 15.0636C36.2892 14.9788 36.6361 14.8517 36.9829 14.6822C38.2186 14.0466 38.8256 13.0297 38.7822 11.6737C38.7389 10.1907 37.5249 9.02543 36.0508 9.02543C35.6172 12.6059 35.2053 16.1864 34.7718 19.767C33.1892 19.767 31.6284 19.767 30.0459 19.767C30.5445 15.6568 31.0648 11.5466 31.5634 7.45764Z" fill="white"/>
<path d="M8.5849 12.0762C7.39259 13.0296 6.56881 14.1737 6.15693 15.572C5.74504 16.9915 5.89679 18.3898 6.43875 19.7669C4.29259 19.7669 2.16812 19.7669 0.0219727 19.7669C2.4933 15.6567 4.94294 11.5677 7.39259 7.47876C8.91007 7.47876 10.4492 7.47876 11.9884 7.47876C13.2674 11.5677 14.5247 15.6567 15.8038 19.7669C14.0912 19.7669 12.3786 19.7669 10.666 19.7669C9.95063 17.2033 9.2786 14.661 8.5849 12.0762Z" fill="white"/>
<path d="M22.415 9.0254C21.9815 12.6059 21.5696 16.1652 21.136 19.7457C19.5752 19.7457 17.9927 19.7457 16.4102 19.7457C16.9088 15.6568 17.429 11.5466 17.9276 7.45761C18.0143 7.41523 18.1011 7.43642 18.1661 7.43642C19.9871 7.43642 21.808 7.41523 23.629 7.43642C24.843 7.43642 26.057 7.58472 27.1843 8.07201C28.2031 8.51693 29.0269 9.17371 29.3954 10.233C29.9157 11.7373 29.6556 13.1568 28.6801 14.4279C27.943 15.4025 26.9024 15.9322 25.7101 16.2076C24.6045 16.4618 23.4773 16.4195 22.35 16.2288C22.3066 16.2288 22.2633 16.2076 22.1983 16.1864C22.5451 16.0805 22.8703 15.9746 23.1521 15.7839C24.4311 15.0212 25.0598 13.8983 25.1465 12.4576C25.1899 11.5466 24.9514 10.7203 24.3661 9.99998C23.9325 9.47032 23.3689 9.11015 22.6535 9.00421C22.5668 9.0254 22.5018 9.00421 22.415 9.0254Z" fill="white"/>
<path d="M62.2814 16.2924C62.0212 17.4576 61.7611 18.6017 61.5226 19.7458C58.3576 19.7458 55.1926 19.7458 52.0059 19.7458C52.4828 15.6356 52.9814 11.5466 53.4583 7.45764C54.9975 7.45764 56.5149 7.45764 58.0758 7.45764C57.7072 10.6992 57.317 13.9195 56.9485 17.161C57.8807 17.4153 58.7912 17.5424 59.7233 17.3941C60.6555 17.2458 61.4793 16.8432 62.2814 16.2924Z" fill="white"/>
<path d="M49.5565 19.7457C47.9523 19.7457 46.3698 19.7457 44.7656 19.7457C45.2425 15.6356 45.7411 11.5466 46.2181 7.4364C47.8006 7.4364 49.3614 7.4364 50.9873 7.4364C50.5104 11.5466 50.0334 15.6356 49.5565 19.7457Z" fill="white"/>
<path d="M91.7424 16.5678C91.8074 16.5678 91.8724 16.589 91.9592 16.6102C92.0242 16.6314 92.0892 16.6737 92.1543 16.7373L93.3249 17.9237C92.8263 18.5805 92.1759 19.0678 91.4172 19.3856C90.6585 19.7246 89.748 19.8729 88.7074 19.8729C87.7536 19.8729 86.8864 19.7034 86.1277 19.3856C85.369 19.0678 84.7186 18.6229 84.1983 18.0721C83.6781 17.5212 83.2662 16.8432 82.9843 16.0805C82.7025 15.3178 82.5508 14.4704 82.5508 13.5805C82.5508 12.6695 82.7025 11.8221 83.0277 11.0382C83.3529 10.2754 83.8081 9.59748 84.3934 9.04663C84.9787 8.49578 85.6725 8.05087 86.4746 7.73307C87.2766 7.41527 88.1655 7.26697 89.141 7.26697C89.6179 7.26697 90.0515 7.30934 90.485 7.39409C90.8969 7.47883 91.2871 7.58476 91.6557 7.73307C92.0242 7.88137 92.3494 8.05087 92.6529 8.24154C92.9564 8.43222 93.2382 8.66527 93.4766 8.89832L92.4794 10.1907C92.4144 10.2754 92.3494 10.339 92.2627 10.4026C92.1759 10.4661 92.0459 10.5085 91.8941 10.5085C91.7857 10.5085 91.699 10.4873 91.5906 10.4449C91.5039 10.4026 91.3955 10.339 91.2871 10.2754C91.1787 10.2119 91.0703 10.1483 90.9403 10.0636C90.8102 9.97883 90.6585 9.91527 90.5067 9.85171C90.3333 9.78815 90.1382 9.7246 89.8997 9.68222C89.6613 9.63985 89.4011 9.61866 89.0976 9.61866C88.5557 9.61866 88.0787 9.70341 87.6452 9.89409C87.2116 10.0848 86.8214 10.339 86.5179 10.678C86.1927 11.017 85.9543 11.4407 85.7809 11.928C85.6074 12.4153 85.5207 12.9661 85.5207 13.5593C85.5207 14.1949 85.6074 14.7458 85.7809 15.2331C85.9543 15.7204 86.1927 16.1441 86.4962 16.4831C86.7997 16.8221 87.1466 17.0763 87.5585 17.2458C87.9704 17.4153 88.4039 17.5 88.8592 17.5C89.1193 17.5 89.3578 17.4788 89.5962 17.4576C89.813 17.4365 90.0298 17.3941 90.2032 17.3305C90.3983 17.267 90.5718 17.1822 90.7452 17.0975C90.9186 16.9915 91.092 16.8856 91.2655 16.7373C91.3305 16.6737 91.4172 16.6314 91.4822 16.589C91.569 16.5678 91.6557 16.5678 91.7424 16.5678ZM106.917 13.5805C106.917 14.4704 106.765 15.2966 106.44 16.0593C106.115 16.8221 105.682 17.5 105.118 18.0509C104.554 18.6229 103.861 19.0678 103.058 19.3856C102.256 19.7034 101.368 19.8729 100.37 19.8729C99.3948 19.8729 98.4843 19.7034 97.6822 19.3856C96.8801 19.0678 96.1864 18.6229 95.6011 18.0509C95.0375 17.4788 94.5822 16.8221 94.2571 16.0593C93.9319 15.2966 93.7801 14.4704 93.7801 13.5805C93.7801 12.6907 93.9319 11.8644 94.2571 11.1017C94.5822 10.339 95.0158 9.66104 95.6011 9.11019C96.1647 8.53815 96.8585 8.09324 97.6822 7.77544C98.4843 7.45765 99.3948 7.28815 100.37 7.28815C101.346 7.28815 102.235 7.45765 103.058 7.77544C103.861 8.09324 104.554 8.53815 105.118 9.11019C105.682 9.68222 106.137 10.339 106.44 11.1017C106.765 11.8644 106.917 12.6907 106.917 13.5805ZM103.926 13.5805C103.926 12.9661 103.839 12.4153 103.687 11.928C103.535 11.4407 103.297 11.017 102.993 10.678C102.69 10.339 102.321 10.0848 101.888 9.89409C101.454 9.70341 100.956 9.61866 100.392 9.61866C99.8284 9.61866 99.3298 9.70341 98.8745 9.89409C98.441 10.0848 98.0508 10.339 97.7473 10.678C97.4438 11.017 97.2053 11.4195 97.0536 11.928C96.9018 12.4153 96.8151 12.9661 96.8151 13.5805C96.8151 14.1949 96.9018 14.7458 97.0536 15.2331C97.2053 15.7204 97.4438 16.1441 97.7473 16.4831C98.0508 16.8221 98.4193 17.0763 98.8745 17.267C99.3081 17.4365 99.8284 17.5424 100.392 17.5424C100.956 17.5424 101.454 17.4576 101.888 17.267C102.321 17.0975 102.69 16.8221 102.993 16.4831C103.297 16.1441 103.535 15.7415 103.687 15.2331C103.839 14.7458 103.926 14.1949 103.926 13.5805ZM110.516 7.43646C110.602 7.45765 110.689 7.47883 110.754 7.50002C110.819 7.52121 110.884 7.58476 110.949 7.62714C111.014 7.6907 111.079 7.75426 111.166 7.86019L117.149 15.2543C117.128 15.0212 117.106 14.7882 117.106 14.5551C117.084 14.3221 117.084 14.1314 117.084 13.9195V7.41527H119.664V19.7458H118.147C117.93 19.7458 117.735 19.7034 117.583 19.6398C117.431 19.5763 117.279 19.4492 117.128 19.2585L111.188 11.9068C111.209 12.1187 111.209 12.3305 111.231 12.5424C111.253 12.7543 111.253 12.9449 111.253 13.1144V19.7246H108.673V7.41527H110.212C110.321 7.41527 110.429 7.41527 110.516 7.43646ZM123.935 7.43646C124.021 7.45765 124.108 7.47883 124.173 7.50002C124.238 7.52121 124.303 7.58476 124.368 7.62714C124.433 7.6907 124.498 7.75426 124.585 7.86019L130.59 15.2543C130.568 15.0212 130.547 14.7882 130.547 14.5551C130.525 14.3221 130.525 14.1314 130.525 13.9195V7.41527H133.105V19.7458H131.587C131.37 19.7458 131.175 19.7034 131.023 19.6398C130.872 19.5763 130.72 19.4492 130.568 19.2585L124.628 11.9068C124.65 12.1187 124.65 12.3305 124.672 12.5424C124.693 12.7543 124.693 12.9449 124.693 13.1144V19.7246H122.114V7.41527H123.653C123.74 7.41527 123.848 7.41527 123.935 7.43646ZM143.619 7.41527V9.61866H138.437V12.5H142.426V14.6187H138.459V17.5636H143.64V19.767H135.511V7.41527H143.619ZM153.764 16.5678C153.829 16.5678 153.894 16.589 153.981 16.6102C154.046 16.6314 154.111 16.6737 154.176 16.7373L155.346 17.9237C154.848 18.5805 154.198 19.0678 153.439 19.3856C152.68 19.7246 151.77 19.8729 150.729 19.8729C149.775 19.8729 148.908 19.7034 148.149 19.3856C147.391 19.0678 146.74 18.6229 146.22 18.0721C145.7 17.5212 145.288 16.8432 145.006 16.0805C144.724 15.3178 144.572 14.4704 144.572 13.5805C144.572 12.6695 144.724 11.8221 145.049 11.0382C145.374 10.2754 145.83 9.59748 146.415 9.04663C147 8.49578 147.694 8.05087 148.496 7.73307C149.298 7.41527 150.187 7.26697 151.163 7.26697C151.639 7.26697 152.073 7.30934 152.507 7.39409C152.918 7.47883 153.309 7.58476 153.677 7.73307C154.046 7.88137 154.371 8.05087 154.674 8.24154C154.978 8.43222 155.26 8.66527 155.498 8.89832L154.501 10.1907C154.436 10.2754 154.371 10.339 154.284 10.4026C154.198 10.4661 154.067 10.5085 153.916 10.5085C153.807 10.5085 153.721 10.4873 153.612 10.4449C153.525 10.4026 153.417 10.339 153.309 10.2754C153.2 10.2119 153.092 10.1483 152.962 10.0636C152.832 9.97883 152.68 9.91527 152.528 9.85171C152.355 9.78815 152.16 9.7246 151.921 9.68222C151.683 9.63985 151.423 9.61866 151.119 9.61866C150.577 9.61866 150.1 9.70341 149.667 9.89409C149.233 10.0848 148.843 10.339 148.539 10.678C148.214 11.017 147.976 11.4407 147.802 11.928C147.629 12.4153 147.542 12.9661 147.542 13.5593C147.542 14.1949 147.629 14.7458 147.802 15.2331C147.976 15.7204 148.214 16.1441 148.518 16.4831C148.821 16.8221 149.168 17.0763 149.58 17.2458C149.992 17.4153 150.425 17.5 150.881 17.5C151.141 17.5 151.379 17.4788 151.618 17.4576C151.835 17.4365 152.051 17.3941 152.225 17.3305C152.42 17.267 152.593 17.1822 152.767 17.0975C152.94 16.9915 153.114 16.8856 153.287 16.7373C153.352 16.6737 153.439 16.6314 153.504 16.589C153.591 16.5678 153.677 16.5678 153.764 16.5678ZM166.316 7.41527V9.68222H162.76V19.7458H159.834V9.68222H156.3V7.41527H166.316Z" fill="white"/>
</g>
<defs>
<clipPath id="clip0">
<rect width="166.316" height="20" fill="white"/>
</clipPath>
</defs>
</svg>
