<svg width="154" height="86" viewBox="0 0 154 86" fill="none" xmlns="http://www.w3.org/2000/svg">
<g clip-path="url(#clip0)">
<path d="M141.75 26.9393C141.616 26.9393 141.482 26.8946 141.304 26.8946C141.259 26.8946 141.17 26.8946 141.081 26.8946C141.215 26.6266 141.304 26.4032 141.393 26.1798C142.195 24.4822 143.309 22.9632 144.601 21.5783C146.605 19.4785 148.922 17.7362 151.55 16.4406C152.263 16.0832 152.975 15.8152 153.733 15.5471C153.777 15.5471 153.822 15.5024 153.911 15.5024C153.866 15.8152 153.866 16.1279 153.822 16.3959C153.599 18.0043 153.109 19.5232 152.263 20.9528C150.436 23.9908 147.808 25.9118 144.333 26.6713C143.665 26.8053 142.952 26.8946 142.24 26.9393C142.195 26.9393 142.15 26.9393 142.106 26.984C142.017 26.9393 141.883 26.9393 141.75 26.9393Z" fill="white"/>
<path d="M130.078 12.9558C134.711 15.3236 138.186 18.8976 140.68 23.3652C140.012 24.4374 139.389 25.4649 138.765 26.4924C132.617 24.8394 129.098 18.7636 130.078 12.9558Z" fill="white"/>
<path d="M142.106 21.6676C141.304 20.4613 140.413 19.3444 139.433 18.2722C139.7 17.9148 139.968 17.5574 140.235 17.2C141.304 15.9491 142.551 14.8769 143.888 13.894C145.937 12.4198 148.12 11.1689 150.481 10.2307C151.194 9.96262 151.951 9.73924 152.664 9.47119C152.664 9.47119 152.708 9.47119 152.753 9.47119C153.376 10.9455 153.777 12.5091 153.866 14.1174C149.234 15.4577 145.358 18.0489 142.106 21.6676Z" fill="white"/>
<path d="M130.345 11.5709C130.791 9.82857 131.548 8.22026 132.573 6.74597C136.181 8.22026 139.166 10.4987 141.616 13.4919C140.324 14.4748 139.121 15.547 138.141 16.8873C136.983 15.7704 135.78 14.7429 134.488 13.8493C133.196 13.0005 131.815 12.1964 130.345 11.5709Z" fill="white"/>
<path d="M149.768 4.86963C150.748 5.94184 151.55 7.05872 152.218 8.30963C148.877 9.11379 145.848 10.6774 142.997 12.5091C142.106 11.6603 141.215 10.8114 140.324 9.96262C140.68 9.64989 141.081 9.29249 141.482 8.97976C143.353 7.50547 145.447 6.43327 147.63 5.58443C148.342 5.31638 149.055 5.13768 149.768 4.86963Z" fill="white"/>
<path d="M139.166 9.11373C137.339 7.77347 135.424 6.61192 133.241 5.80776C133.553 5.49503 133.82 5.13763 134.087 4.86958C134.845 4.02075 135.691 3.30594 136.627 2.63581C136.716 2.59114 136.805 2.54646 136.894 2.59114C138.453 3.08257 139.879 3.84205 141.17 4.8249C141.794 5.27166 142.373 5.80776 142.908 6.34386C142.952 6.38854 142.952 6.43321 142.997 6.47789C141.66 7.1927 140.369 8.04153 139.166 9.11373Z" fill="white"/>
<path d="M148.922 4.06539C147.318 4.42279 145.848 5.00357 144.378 5.71838C143.62 5.00357 142.819 4.37812 141.883 3.75266C142.239 3.52928 142.596 3.30591 142.952 3.12721C143.932 2.5911 144.957 2.2337 146.026 1.96565C146.16 1.92097 146.249 1.96565 146.382 2.01032C147.229 2.5911 148.031 3.21656 148.788 3.88669C148.832 3.97604 148.877 4.02071 148.922 4.06539Z" fill="white"/>
<path d="M145.18 1.29554C143.576 1.69762 142.15 2.2784 140.814 3.08256C139.834 2.6358 138.854 2.18905 137.874 1.7423C137.918 1.69762 137.963 1.65295 138.052 1.65295C139.21 0.93814 140.458 0.357361 141.794 -4.17624e-05C141.838 -4.17624e-05 141.928 -0.0447171 141.972 -4.17624e-05C143.041 0.312685 144.066 0.670088 145.001 1.20619C145.046 1.25087 145.135 1.25087 145.18 1.29554Z" fill="white"/>
<path d="M64.8607 15.7258C65.0389 15.6364 65.1726 15.6811 65.3062 15.6811C69.1818 15.6811 73.0574 15.6811 76.933 15.6811C79.1159 15.6811 81.2541 15.8598 83.3479 16.5299C84.9516 17.066 86.4216 17.8255 87.5353 19.1211C88.8272 20.6847 89.3172 22.5164 89.0945 24.5268C88.7826 27.7881 86.8671 29.8432 83.8824 31.0047C83.7042 31.0494 83.5706 31.1388 83.3924 31.1834C83.3924 31.1834 83.3479 31.1834 83.3033 31.2281C85.7089 34.6681 88.1144 38.1528 90.5645 41.6374C89.7627 41.8608 89.0054 41.9949 88.2481 42.0842C86.1543 42.3076 84.1497 42.1736 82.1451 41.4588C79.695 40.5652 77.824 39.0016 76.3539 36.9019C75.2402 35.3382 74.4384 33.5959 73.7702 31.7642C74.572 31.5855 75.2848 31.3175 75.9976 30.9601C78.5368 29.6198 79.7841 27.4754 79.695 24.6162C79.6059 21.4889 77.1112 19.0317 74.082 19.0317C73.1911 26.5819 72.3447 34.132 71.4537 41.6821C68.2018 41.6821 64.9944 41.6821 61.7424 41.6821C62.767 33.0151 63.8362 24.3481 64.8607 15.7258Z" fill="white"/>
<path d="M17.6406 25.4649C15.1905 27.4753 13.4977 29.8878 12.6513 32.8364C11.8049 35.8296 12.1167 38.7782 13.2304 41.6821C8.82025 41.6821 4.45462 41.6821 0.0444336 41.6821C5.12282 33.0151 10.1567 24.3927 15.1905 15.7704C18.3088 15.7704 21.4717 15.7704 24.6345 15.7704C27.2628 24.3927 29.8466 33.0151 32.4749 41.6821C28.9556 41.6821 25.4364 41.6821 21.9172 41.6821C20.4471 36.2764 19.0661 30.9153 17.6406 25.4649Z" fill="white"/>
<path d="M46.0618 19.0316C45.1708 26.5818 44.3244 34.0872 43.4335 41.6373C40.2261 41.6373 36.9741 41.6373 33.7222 41.6373C34.7468 33.015 35.8159 24.348 36.8405 15.7257C37.0187 15.6363 37.1969 15.681 37.3305 15.681C41.0725 15.681 44.8144 15.6363 48.5564 15.681C51.0511 15.681 53.5457 15.9937 55.8622 17.0212C57.9559 17.9594 59.6487 19.3444 60.406 21.5781C61.4751 24.7501 60.9406 27.7433 58.9359 30.4238C57.4213 32.4789 55.2831 33.5958 52.833 34.1766C50.561 34.7127 48.2446 34.6233 45.9281 34.2212C45.839 34.2212 45.7499 34.1766 45.6163 34.1319C46.3291 33.9085 46.9973 33.6851 47.5764 33.2831C50.2047 31.6748 51.4965 29.307 51.6747 26.269C51.7638 24.348 51.2738 22.6057 50.071 21.0867C49.1801 19.9698 48.0219 19.2103 46.5518 18.987C46.3736 19.0316 46.24 18.987 46.0618 19.0316Z" fill="white"/>
<path d="M127.984 34.3553C127.45 36.8125 126.915 39.2249 126.425 41.6374C119.921 41.6374 113.417 41.6374 106.869 41.6374C107.849 32.9704 108.874 24.348 109.854 15.7257C113.016 15.7257 116.135 15.7257 119.342 15.7257C118.585 22.561 117.783 29.3517 117.026 36.187C118.941 36.7231 120.812 36.9912 122.728 36.6784C124.643 36.3657 126.336 35.5169 127.984 34.3553Z" fill="white"/>
<path d="M101.835 41.6374C98.5387 41.6374 95.2867 41.6374 91.9902 41.6374C92.9703 32.9704 93.9949 24.348 94.9749 15.681C98.2269 15.681 101.434 15.681 104.775 15.681C103.795 24.348 102.815 32.9704 101.835 41.6374Z" fill="white"/>
<path d="M16.928 79.7454C17.0616 79.7454 17.1953 79.7901 17.3289 79.8347C17.4625 79.8794 17.5962 79.9688 17.6853 80.1028L19.8235 82.3366C18.8881 83.5428 17.7298 84.481 16.3043 85.1064C14.8788 85.7319 13.2305 86.0446 11.315 86.0446C9.53312 86.0446 7.97397 85.7319 6.593 85.1511C5.21203 84.5703 4.00926 83.7215 3.02922 82.6493C2.04918 81.5771 1.29187 80.3262 0.801851 78.8966C0.267284 77.4223 0 75.8586 0 74.161C0 72.4186 0.311831 70.855 0.890946 69.3807C1.47006 67.9064 2.31646 66.6555 3.38559 65.628C4.45473 64.5558 5.7466 63.7516 7.21666 63.1709C8.68672 62.5901 10.335 62.2773 12.1169 62.2773C13.0078 62.2773 13.8097 62.3667 14.567 62.5007C15.3243 62.6347 16.037 62.8581 16.7052 63.1262C17.3734 63.3942 17.9971 63.707 18.5317 64.109C19.1108 64.4664 19.6008 64.9132 20.0463 65.3599L18.2198 67.8171C18.0862 67.9511 17.9526 68.0851 17.8189 68.2192C17.6407 68.3532 17.418 68.3979 17.1507 68.3979C16.9725 68.3979 16.7943 68.3532 16.6161 68.2638C16.438 68.1745 16.2598 68.0851 16.0816 67.9511C15.9034 67.8171 15.6806 67.6831 15.4579 67.549C15.2352 67.415 14.9679 67.281 14.6561 67.147C14.3442 67.0129 13.9878 66.9236 13.5424 66.8342C13.1415 66.7449 12.6514 66.7002 12.0723 66.7002C11.0923 66.7002 10.2013 66.8789 9.39948 67.2363C8.59763 67.5937 7.88487 68.0851 7.30576 68.7106C6.72664 69.336 6.28117 70.1402 5.96934 71.0337C5.65751 71.9272 5.47932 72.9547 5.47932 74.1163C5.47932 75.3225 5.65751 76.3501 5.96934 77.2883C6.28117 78.2264 6.72664 78.9859 7.30576 79.6114C7.88487 80.2368 8.50853 80.7282 9.26584 81.041C10.0231 81.3537 10.825 81.5324 11.6714 81.5324C12.1614 81.5324 12.6069 81.4877 13.0078 81.4431C13.4087 81.3984 13.7651 81.309 14.1215 81.175C14.4779 81.041 14.7897 80.907 15.1015 80.7283C15.4134 80.5495 15.7252 80.3262 16.037 80.0134C16.1707 79.9241 16.3043 79.8347 16.438 79.7454C16.6161 79.7901 16.7498 79.7454 16.928 79.7454ZM44.8146 74.1163C44.8146 75.814 44.5473 77.3776 43.9682 78.8072C43.3891 80.2368 42.5872 81.5324 41.5181 82.5599C40.4489 83.6321 39.2016 84.481 37.7316 85.0618C36.2615 85.6872 34.6132 85.9553 32.7868 85.9553C31.0049 85.9553 29.3567 85.6425 27.8421 85.0618C26.372 84.4363 25.0801 83.6321 24.011 82.5599C22.9419 81.4877 22.14 80.2368 21.5609 78.8072C20.9818 77.3776 20.7145 75.814 20.7145 74.1163C20.7145 72.4186 20.9818 70.855 21.5609 69.4254C22.14 67.9958 22.9419 66.7449 24.011 65.6727C25.0801 64.6005 26.3274 63.7516 27.8421 63.1709C29.3121 62.5454 30.9604 62.2773 32.7868 62.2773C34.5687 62.2773 36.2169 62.5901 37.7316 63.2155C39.2016 63.841 40.4935 64.6451 41.5181 65.7173C42.5872 66.7896 43.3891 68.0405 43.9682 69.4701C44.5027 70.8997 44.8146 72.4633 44.8146 74.1163ZM39.2907 74.1163C39.2907 72.9547 39.1571 71.9272 38.8452 71.0337C38.5334 70.0955 38.1325 69.336 37.5534 68.7106C36.9743 68.0851 36.306 67.5937 35.5042 67.2363C34.7023 66.8789 33.7668 66.7449 32.7423 66.7449C31.7177 66.7449 30.7822 66.9236 29.9803 67.2363C29.1785 67.5937 28.4657 68.0851 27.9312 68.7106C27.352 69.336 26.9511 70.1402 26.6393 71.0337C26.3274 71.9719 26.1938 72.9994 26.1938 74.1163C26.1938 75.2779 26.3274 76.3054 26.6393 77.2436C26.9511 78.1818 27.352 78.9412 27.9312 79.5667C28.5103 80.1922 29.1785 80.6836 29.9803 81.041C30.7822 81.3984 31.7177 81.5324 32.7423 81.5324C33.7668 81.5324 34.7023 81.3537 35.5042 81.041C36.306 80.6836 36.9743 80.2368 37.5534 79.5667C38.1325 78.9412 38.5334 78.1371 38.8452 77.2436C39.1571 76.3054 39.2907 75.2779 39.2907 74.1163ZM51.4076 62.5454C51.5858 62.5454 51.7194 62.5901 51.8531 62.6794C51.9867 62.7241 52.1203 62.8134 52.2094 62.9475C52.3431 63.0368 52.4767 63.2155 52.6104 63.3942L63.6135 77.3776C63.569 76.9308 63.5244 76.4841 63.5244 76.082C63.5244 75.6799 63.4799 75.2779 63.4799 74.8758V62.5901H68.2019V85.7766H65.3954C64.9945 85.7766 64.6381 85.7319 64.3263 85.5979C64.059 85.4638 63.7472 85.2405 63.4799 84.8831L52.5658 71.0337C52.6104 71.4358 52.6104 71.8379 52.6549 72.2399C52.6549 72.642 52.6994 72.9994 52.6994 73.3122V85.7766H47.9774V62.5007H50.8285C51.0512 62.5007 51.2294 62.5007 51.4076 62.5454ZM76.0868 62.5454C76.265 62.5454 76.3986 62.5901 76.5322 62.6794C76.6659 62.7241 76.7995 62.8134 76.8886 62.9475C77.0223 63.0368 77.1559 63.2155 77.2896 63.3942L88.2927 77.3776C88.2482 76.9308 88.2036 76.4841 88.2036 76.082C88.2036 75.6799 88.1591 75.2779 88.1591 74.8758V62.5901H92.8811V85.7766H90.0746C89.6737 85.7766 89.3173 85.7319 89.0055 85.5979C88.7382 85.4638 88.4264 85.2405 88.1591 84.8831L77.245 71.0337C77.2896 71.4358 77.2896 71.8379 77.3341 72.2399C77.3341 72.642 77.3786 72.9994 77.3786 73.3122V85.7766H72.6566V62.5007H75.5077C75.7304 62.5007 75.9086 62.5007 76.0868 62.5454ZM112.259 62.5007V66.6555H102.726V72.0612H110.032V76.0373H102.726V81.5771H112.259V85.7319H97.3358V62.456H112.259V62.5007ZM130.88 79.7454C131.014 79.7454 131.147 79.7901 131.281 79.8347C131.415 79.8794 131.548 79.9688 131.637 80.1028L133.776 82.3366C132.84 83.5428 131.682 84.481 130.256 85.1064C128.831 85.7319 127.183 86.0446 125.267 86.0446C123.485 86.0446 121.926 85.7319 120.545 85.1511C119.164 84.5703 117.961 83.7215 116.981 82.6493C116.001 81.5771 115.244 80.3262 114.754 78.8966C114.219 77.4223 113.952 75.8586 113.952 74.161C113.952 72.4186 114.264 70.855 114.843 69.3807C115.422 67.9064 116.268 66.6555 117.338 65.628C118.407 64.5558 119.699 63.7516 121.169 63.1709C122.639 62.5901 124.287 62.2773 126.069 62.2773C126.96 62.2773 127.762 62.3667 128.519 62.5007C129.276 62.6347 129.989 62.8581 130.657 63.1262C131.325 63.3942 131.949 63.707 132.484 64.109C133.063 64.4664 133.553 64.9132 133.998 65.3599L132.172 67.8171C132.038 67.9511 131.905 68.0851 131.771 68.2192C131.593 68.3532 131.37 68.3979 131.103 68.3979C130.924 68.3979 130.746 68.3532 130.568 68.2638C130.39 68.1745 130.212 68.0851 130.034 67.9511C129.855 67.8171 129.633 67.6831 129.41 67.549C129.187 67.415 128.92 67.281 128.608 67.147C128.296 67.0129 127.94 66.9236 127.494 66.8342C127.093 66.7449 126.603 66.7002 126.024 66.7002C125.044 66.7002 124.153 66.8789 123.351 67.2363C122.55 67.5937 121.837 68.0851 121.258 68.7106C120.679 69.336 120.233 70.1402 119.921 71.0337C119.609 71.9272 119.431 72.9547 119.431 74.1163C119.431 75.3225 119.609 76.3501 119.921 77.2883C120.233 78.2264 120.679 78.9859 121.258 79.6114C121.837 80.2368 122.461 80.7282 123.218 81.041C123.975 81.3537 124.777 81.5324 125.623 81.5324C126.113 81.5324 126.559 81.4877 126.96 81.4431C127.361 81.3984 127.717 81.309 128.073 81.175C128.43 81.041 128.742 80.907 129.054 80.7283C129.365 80.5495 129.677 80.3262 129.989 80.0134C130.123 79.9241 130.256 79.8347 130.39 79.7454C130.568 79.7901 130.746 79.7454 130.88 79.7454ZM154 62.5007V66.7896H147.452V85.7766H142.106V66.7896H135.602V62.5007H154Z" fill="white"/>
</g>
<defs>
<clipPath id="clip0">
<rect width="154" height="86" fill="white"/>
</clipPath>
</defs>
</svg>
