<svg width="206" height="86" viewBox="0 0 206 86" fill="none" xmlns="http://www.w3.org/2000/svg">
<path d="M59.9127 8.10956C46.3094 -0.947551 26.6652 -0.836576 13.0631 8.10264C12.088 8.74345 11.8054 10.0715 12.4319 11.0689C13.0584 12.0663 14.3567 12.3553 15.3317 11.7145C27.5558 3.68099 45.4161 3.58009 57.6231 11.7076C58.5945 12.3543 59.8944 12.0731 60.5267 11.0796C61.1589 10.086 60.8841 8.75628 59.9127 8.10956Z" fill="#191E24"/>
<path d="M70.4751 29.9719C63.5584 19.0295 51.1753 12.1058 37.9327 11.5136C23.9042 10.8863 10.777 17.3361 2.19566 30.1252C1.53982 31.1026 1.78279 32.4388 2.73835 33.1097C3.69392 33.7805 5.00023 33.532 5.65607 32.5546C13.404 21.0075 25.1446 15.239 37.7494 15.8026C49.664 16.3354 60.7896 22.5561 66.9506 32.3029C67.5799 33.2984 68.879 33.5837 69.8522 32.94C70.8255 32.2963 71.1044 30.9674 70.4751 29.9719Z" fill="#191E24"/>
<path d="M11.4474 68.1163C7.47823 55.1064 8.90634 44.2447 14.6618 36.4678C19.7105 29.6459 27.8795 25.6981 36.3185 25.6981C52.227 25.6981 63.9372 38.797 63.9372 53.5117C63.9372 57.9271 60.4378 61.5062 56.1209 61.5062C51.799 61.5062 48.2836 57.9213 48.2836 53.5117H46.1851H44.0865V53.8101H46.1851H48.2836C48.2836 47.0241 42.9048 41.5225 36.2702 41.5225C29.7404 41.5225 24.5941 46.8915 24.2602 53.7026C24.0444 58.108 25.4515 64.0047 28.4008 69.1683C32.2698 75.942 38.4276 81.0917 46.9361 83.763C48.0441 84.1109 49.218 83.4741 49.558 82.3408C49.8981 81.2075 49.2756 80.0067 48.1676 79.6589C40.6891 77.3109 35.3735 72.8656 32.0247 67.0026C29.4867 62.5591 28.277 57.4897 28.452 53.9175C28.677 49.3279 32.0436 45.8156 36.2702 45.8156C40.5869 45.8156 44.0865 49.3952 44.0865 53.8101C44.0865 56.6721 48.2836 56.6721 48.2836 53.8101V53.5117C48.2836 50.6496 44.0865 50.6496 44.0865 53.5117C44.0865 60.2953 49.4839 65.7993 56.1209 65.7993C62.7557 65.7993 68.1342 60.2982 68.1342 53.5117C68.1342 36.5075 54.6329 21.405 36.3185 21.405C26.5948 21.405 17.177 25.9563 11.3154 33.8766C4.70247 42.8122 3.08467 55.1166 7.44088 69.3953C7.78614 70.5269 8.96291 71.1581 10.0693 70.8049C11.1756 70.4517 11.7926 69.248 11.4474 68.1163Z" fill="#191E24"/>
<path d="M29.2016 79.1847C24.5681 75.1344 20.3778 66.908 19.2003 58.9752C17.8478 49.8631 20.4283 42.4573 27.2871 38.3013C39.5331 30.8811 53.8481 39.8608 53.8481 54.0612C53.8481 55.2467 54.7877 56.2077 55.9466 56.2077C57.1056 56.2077 58.0452 55.2467 58.0452 54.0612C58.0452 36.6096 40.2583 25.4519 25.148 34.6076C16.6545 39.7541 13.4621 48.9161 15.0508 59.6196C16.3741 68.5347 21.0425 77.6999 26.475 82.4484C27.3561 83.2186 28.6808 83.1123 29.4337 82.211C30.1866 81.3098 30.0827 79.9548 29.2016 79.1847Z" fill="#191E24"/>
<path d="M34.2567 53.387C34.0827 59.2288 36.8738 66.4427 41.6951 70.6156C46.0604 74.3936 52.4088 75.8606 60.2876 74.8985C61.4384 74.758 62.26 73.6898 62.1226 72.5126C61.9852 71.3355 60.9409 70.4951 59.7901 70.6357C52.9831 71.4669 47.7899 70.2668 44.4061 67.3383C40.6153 64.0573 38.3149 58.1118 38.4518 53.5178C38.4871 52.3328 37.5766 51.343 36.4182 51.3069C35.2597 51.2708 34.292 52.2021 34.2567 53.387Z" fill="#191E24"/>
<path d="M162.799 79.12C182.747 79.12 198.919 62.9485 198.919 43C198.919 23.0515 182.747 6.88002 162.799 6.88002C142.85 6.88002 126.679 23.0515 126.679 43C126.679 62.9485 142.85 79.12 162.799 79.12ZM162.799 83.42C140.476 83.42 122.379 65.3234 122.379 43C122.379 20.6767 140.476 2.58002 162.799 2.58002C185.122 2.58002 203.219 20.6767 203.219 43C203.219 65.3234 185.122 83.42 162.799 83.42ZM176.989 31.4893V37.7408C176.989 39.2205 178.144 40.42 179.569 40.42C180.994 40.42 182.149 39.2205 182.149 37.7408V31.4893C182.149 30.0096 180.994 28.81 179.569 28.81C178.144 28.81 176.989 30.0096 176.989 31.4893ZM143.449 31.4893V37.7408C143.449 39.2205 144.604 40.42 146.029 40.42C147.454 40.42 148.609 39.2205 148.609 37.7408V31.4893C148.609 30.0096 147.454 28.81 146.029 28.81C144.604 28.81 143.449 30.0096 143.449 31.4893ZM159.464 48.0172C157.981 48.0172 156.779 49.2043 156.779 50.6686C156.779 52.1329 157.981 53.32 159.464 53.32C164.084 53.32 166.85 50.4355 167.095 45.642L167.099 45.5082V31.4614C167.099 29.9971 165.897 28.81 164.413 28.81C162.93 28.81 161.728 29.9971 161.728 31.4614V45.4382C161.614 47.4728 161.075 48.0172 159.464 48.0172ZM148.107 62.4409C151.941 66.1057 156.888 67.94 162.799 67.94C168.71 67.94 173.657 66.1057 177.491 62.4409C178.52 61.4576 178.544 59.8391 177.546 58.826C176.547 57.8128 174.904 57.7887 173.875 58.772C171.046 61.4767 167.403 62.8271 162.799 62.8271C158.194 62.8271 154.552 61.4767 151.723 58.772C150.694 57.7887 149.05 57.8128 148.052 58.826C147.054 59.8391 147.078 61.4576 148.107 62.4409Z" fill="#191E24"/>
<path d="M95.0703 43.6797C95.0703 44.7943 94.8828 45.7682 94.5078 46.6016C94.1328 47.4297 93.6016 48.0625 92.9141 48.5C92.2266 48.9375 91.4245 49.1562 90.5078 49.1562C89.612 49.1562 88.8177 48.9375 88.125 48.5C87.4323 48.0573 86.8932 47.4297 86.5078 46.6172C86.1276 45.7995 85.9323 44.8542 85.9219 43.7812V42.9609C85.9219 41.8672 86.112 40.901 86.4922 40.0625C86.8724 39.224 87.4089 38.5833 88.1016 38.1406C88.7995 37.6927 89.5964 37.4688 90.4922 37.4688C91.4036 37.4688 92.2057 37.6901 92.8984 38.1328C93.5964 38.5703 94.1328 39.2083 94.5078 40.0469C94.8828 40.8802 95.0703 41.8516 95.0703 42.9609V43.6797ZM93.5781 42.9453C93.5781 41.5964 93.3073 40.5625 92.7656 39.8438C92.224 39.1198 91.4661 38.7578 90.4922 38.7578C89.5443 38.7578 88.7969 39.1198 88.25 39.8438C87.7083 40.5625 87.4297 41.5625 87.4141 42.8438V43.6797C87.4141 44.987 87.6875 46.0156 88.2344 46.7656C88.7865 47.5104 89.5443 47.8828 90.5078 47.8828C91.4766 47.8828 92.2266 47.5312 92.7578 46.8281C93.2891 46.1198 93.5625 45.1068 93.5781 43.7891V42.9453ZM101.492 44.3984H98.8203V49H97.3125V37.625H101.078C102.359 37.625 103.344 37.9167 104.031 38.5C104.724 39.0833 105.07 39.9323 105.07 41.0469C105.07 41.7552 104.878 42.3724 104.492 42.8984C104.112 43.4245 103.581 43.8177 102.898 44.0781L105.57 48.9062V49H103.961L101.492 44.3984ZM98.8203 43.1719H101.125C101.87 43.1719 102.461 42.9792 102.898 42.5938C103.341 42.2083 103.562 41.6927 103.562 41.0469C103.562 40.3438 103.352 39.8047 102.93 39.4297C102.513 39.0547 101.909 38.8646 101.117 38.8594H98.8203V43.1719Z" fill="#191E24"/>
</svg>
