<svg width="153" height="176" viewBox="0 0 153 176" fill="none" xmlns="http://www.w3.org/2000/svg">
<circle cx="83.0972" cy="69.5" r="69.5" fill="#F1F1F1"/>
<rect x="43.0477" y="61.0427" width="70" height="98" rx="7" transform="rotate(2.5 43.0477 61.0427)" fill="#EEEEEE" stroke="#999999" stroke-width="2"/>
<rect x="1.4332" y="55.1806" width="74" height="102" rx="9" transform="rotate(-7.5 1.4332 55.1806)" fill="#FAFAFA" stroke="#999999" stroke-width="2"/>
<path d="M3.59939 63.9731C3.02268 59.5926 6.10626 55.574 10.4867 54.9973L66.0076 47.6878C70.3881 47.1111 74.4067 50.1947 74.9834 54.5752L76.9413 69.4468L5.55728 78.8447L3.59939 63.9731Z" fill="#EEEEEE"/>
<rect x="93.5117" y="48" width="3" height="10" rx="1.5" transform="rotate(82.5 93.5117 48)" fill="#999999"/>
<rect x="62.5972" y="28.3916" width="3" height="10" rx="1.5" transform="rotate(-7.5 62.5972 28.3916)" fill="#999999"/>
<rect x="81.6851" y="32" width="3" height="10" rx="1.5" transform="rotate(37.5 81.6851 32)" fill="#999999"/>
<rect x="13.0195" y="81.8967" width="58" height="4" rx="2" transform="rotate(-7.5 13.0195 81.8967)" fill="#DCDCDC"/>
<rect x="15.6299" y="101.726" width="58" height="4" rx="2" transform="rotate(-7.5 15.6299 101.726)" fill="#DCDCDC"/>
<rect x="18.2407" y="121.555" width="58" height="4" rx="2" transform="rotate(-7.5 18.2407 121.555)" fill="#DCDCDC"/>
<rect x="14.064" y="89.8284" width="21" height="4" rx="2" transform="rotate(-7.5 14.064 89.8284)" fill="#EEEEEE"/>
<rect x="16.6743" y="109.657" width="21" height="4" rx="2" transform="rotate(-7.5 16.6743 109.657)" fill="#EEEEEE"/>
<rect x="19.2847" y="129.486" width="21" height="4" rx="2" transform="rotate(-7.5 19.2847 129.486)" fill="#EEEEEE"/>
</svg>
