<svg width="158" height="154" viewBox="0 0 158 154" fill="none" xmlns="http://www.w3.org/2000/svg">
<circle cx="81.7747" cy="71.7747" r="71.7747" fill="#F1F1F1"/>
<circle cx="71.188" cy="76.9195" r="41.9195" fill="#F1F1F1" stroke="#C4C4C4" stroke-width="2"/>
<circle cx="71.188" cy="76.9195" r="29.6568" fill="#FFFEFF" stroke="#C4C4C4" stroke-width="2"/>
<path d="M71.1876 54.3811C71.1876 53.9309 70.8224 53.5644 70.3725 53.5801C64.7399 53.7767 59.3574 56.0052 55.2292 59.869C51.1009 63.7329 48.5215 68.9563 47.9531 74.5636C47.9077 75.0115 48.2492 75.4001 48.6984 75.4299C49.1476 75.4597 49.5343 75.1192 49.5809 74.6715C50.1212 69.4771 52.517 64.6404 56.3432 61.0593C60.1694 57.4782 65.1538 55.4073 70.3726 55.2115C70.8224 55.1946 71.1876 54.8312 71.1876 54.3811Z" fill="#C4C4C4"/>
<rect x="103.864" y="122.433" width="14" height="42" rx="7" transform="rotate(-45 103.864 122.433)" fill="#F1F1F1" stroke="#C4C4C4" stroke-width="2"/>
<rect x="118.64" y="125.803" width="1.94836" height="16.3364" rx="0.974179" transform="rotate(-45 118.64 125.803)" fill="white"/>
<rect x="102.442" y="112.526" width="2" height="8" transform="rotate(-45 102.442 112.526)" fill="#C4C4C4"/>
<rect x="123.663" y="71.8833" width="20" height="2" rx="1" fill="#C4C4C4"/>
<rect y="88.4281" width="20" height="2" rx="1" fill="#C4C4C4"/>
<rect x="147.663" y="71.8833" width="10" height="2" rx="1" fill="#C4C4C4"/>
<rect x="128.663" y="79.2213" width="10" height="2" rx="1" fill="#C4C4C4"/>
<rect x="5" y="95.7661" width="10" height="2" rx="1" fill="#C4C4C4"/>
<path d="M134.542 25.5597L134.542 25.5596C135.483 24.6349 136.28 23.5502 136.936 22.3134C137.656 20.9897 138 19.4768 138 17.8052C138 15.6562 137.392 13.6608 136.189 11.8408C134.998 10.0106 133.312 8.58786 131.171 7.56201C129.016 6.51091 126.558 6 123.824 6C120.876 6 118.249 6.60742 115.972 7.85644C113.739 9.0814 112 10.6552 110.799 12.5909C109.622 14.4678 109 16.382 109 18.3197C109 19.4551 109.477 20.4674 110.3 21.3363L110.309 21.3456L110.318 21.3547C111.21 22.2498 112.321 22.7048 113.591 22.7048C114.661 22.7048 115.621 22.3788 116.404 21.691C117.166 21.0218 117.687 20.0744 118.027 18.9466C118.65 17.0785 119.381 15.7616 120.178 14.9164L120.178 14.9165L120.184 14.9099C120.86 14.1792 121.999 13.714 123.824 13.714C125.307 13.714 126.425 14.1423 127.272 14.9339L127.272 14.9339L127.278 14.9396C128.156 15.7466 128.575 16.6998 128.575 17.8593C128.575 18.4292 128.439 18.9442 128.166 19.4224L128.161 19.4319L128.156 19.4414C127.861 19.9864 127.487 20.4871 127.031 20.9445C126.552 21.425 125.745 22.1648 124.595 23.1738L124.595 23.1744C123.268 24.3412 122.195 25.3686 121.388 26.2535C120.53 27.1748 119.848 28.2495 119.338 29.4677C118.807 30.7203 118.558 32.1676 118.558 33.7827C118.558 35.1582 118.918 36.3702 119.805 37.2341L119.805 37.2341L119.815 37.2438C120.659 38.0428 121.701 38.4386 122.879 38.4386C123.955 38.4386 124.929 38.1545 125.691 37.4865C126.442 36.8288 126.873 35.8987 127.072 34.8218C127.265 33.9619 127.402 33.376 127.487 33.0514C127.575 32.7591 127.693 32.4718 127.841 32.1892L127.846 32.18L127.851 32.1707C127.983 31.9068 128.198 31.5889 128.52 31.2166C128.865 30.8219 129.329 30.3544 129.922 29.8118C132.134 27.8281 133.678 26.4073 134.542 25.5597ZM119.622 47.6903L119.63 47.6981L119.639 47.7057C120.65 48.5652 121.843 49 123.176 49C124.489 49 125.661 48.5447 126.649 47.6632C127.708 46.7195 128.199 45.4351 128.199 43.9379C128.199 42.5469 127.715 41.3328 126.746 40.3613C125.777 39.3897 124.566 38.9029 123.176 38.9029C121.774 38.9029 120.547 39.3859 119.56 40.3532C118.571 41.323 118.072 42.5396 118.072 43.9379C118.072 45.4482 118.56 46.7437 119.622 47.6903Z" stroke="#BDBDBD" stroke-width="2"/>
</svg>
