<svg width="87" height="86" viewBox="0 0 87 86" fill="none" xmlns="http://www.w3.org/2000/svg">
<path d="M43.7989 79.1201C63.7474 79.1201 79.9189 62.9486 79.9189 43.0001C79.9189 23.0516 63.7474 6.88008 43.7989 6.88008C23.8504 6.88008 7.67891 23.0516 7.67891 43.0001C7.67891 62.9486 23.8504 79.1201 43.7989 79.1201ZM43.7989 83.4201C21.4756 83.4201 3.37891 65.3234 3.37891 43.0001C3.37891 20.6767 21.4756 2.58008 43.7989 2.58008C66.1223 2.58008 84.2189 20.6767 84.2189 43.0001C84.2189 65.3234 66.1223 83.4201 43.7989 83.4201ZM57.9889 31.4893V37.7408C57.9889 39.2205 59.144 40.4201 60.5689 40.4201C61.9938 40.4201 63.1489 39.2205 63.1489 37.7408V31.4893C63.1489 30.0096 61.9938 28.8101 60.5689 28.8101C59.144 28.8101 57.9889 30.0096 57.9889 31.4893ZM24.4489 31.4893V37.7408C24.4489 39.2205 25.604 40.4201 27.0289 40.4201C28.4538 40.4201 29.6089 39.2205 29.6089 37.7408V31.4893C29.6089 30.0096 28.4538 28.8101 27.0289 28.8101C25.604 28.8101 24.4489 30.0096 24.4489 31.4893ZM40.4644 48.0173C38.9812 48.0173 37.7789 49.2043 37.7789 50.6687C37.7789 52.133 38.9812 53.3201 40.4644 53.3201C45.0838 53.3201 47.8503 50.4356 48.0955 45.6421L48.0989 45.5083V31.4615C48.0989 29.9972 46.8966 28.8101 45.4135 28.8101C43.9303 28.8101 42.728 29.9972 42.728 31.4615V45.4383C42.6136 47.4729 42.075 48.0173 40.4644 48.0173ZM29.1068 62.441C32.9407 66.1058 37.888 67.9401 43.7989 67.9401C49.7098 67.9401 54.6571 66.1058 58.491 62.441C59.5197 61.4577 59.5443 59.8392 58.5458 58.826C57.5473 57.8129 55.904 57.7887 54.8753 58.7721C52.0457 61.4768 48.4035 62.8272 43.7989 62.8272C39.1943 62.8272 35.5521 61.4768 32.7226 58.7721C31.6938 57.7887 30.0505 57.8129 29.052 58.826C28.0535 59.8392 28.0781 61.4577 29.1068 62.441Z" fill="#191E24"/>
</svg>
