<svg width="71" height="83" viewBox="0 0 71 83" fill="none" xmlns="http://www.w3.org/2000/svg">
<path d="M59.9122 7.10956C46.3089 -1.94755 26.6647 -1.83658 13.0626 7.10264C12.0875 7.74345 11.8049 9.07148 12.4314 10.0689C13.0579 11.0663 14.3562 11.3553 15.3313 10.7145C27.5553 2.68099 45.4156 2.58009 57.6226 10.7076C58.594 11.3543 59.894 11.0731 60.5262 10.0796C61.1585 9.086 60.8836 7.75628 59.9122 7.10956Z" fill="#191E24"/>
<path d="M70.4746 28.9717C63.5579 18.0294 51.1748 11.1056 37.9322 10.5134C23.9037 9.88614 10.7765 16.3359 2.19518 29.125C1.53933 30.1025 1.7823 31.4387 2.73787 32.1095C3.69343 32.7804 4.99974 32.5319 5.65558 31.5544C13.4035 20.0073 25.1442 14.2388 37.7489 14.8025C49.6635 15.3352 60.7891 21.5559 66.9501 31.3027C67.5794 32.2983 68.8785 32.5835 69.8518 31.9398C70.825 31.2961 71.1039 29.9673 70.4746 28.9717Z" fill="#191E24"/>
<path d="M11.4479 67.1161C7.47872 54.1062 8.90683 43.2444 14.6623 35.4676C19.711 28.6456 27.8799 24.6979 36.319 24.6979C52.2275 24.6979 63.9376 37.7968 63.9376 52.5115C63.9376 56.9268 60.4383 60.5059 56.1213 60.5059C51.7995 60.5059 48.2841 56.9211 48.2841 52.5115H46.1855H44.087V52.8098H46.1855H48.2841C48.2841 46.0238 42.9053 40.5223 36.2707 40.5223C29.7409 40.5223 24.5946 45.8912 24.2607 52.7023C24.0449 57.1077 25.452 63.0044 28.4013 68.1681C32.2703 74.9417 38.4281 80.0915 46.9366 82.7628C48.0446 83.1106 49.2185 82.4739 49.5585 81.3406C49.8986 80.2072 49.2761 79.0065 48.1681 78.6586C40.6895 76.3107 35.374 71.8653 32.0252 66.0024C29.4872 61.5589 28.2775 56.4894 28.4525 52.9173C28.6775 48.3277 32.0441 44.8154 36.2707 44.8154C40.5874 44.8154 44.087 48.3949 44.087 52.8098C44.087 55.6719 48.2841 55.6719 48.2841 52.8098V52.5115C48.2841 49.6494 44.087 49.6494 44.087 52.5115C44.087 59.2951 49.4844 64.799 56.1213 64.799C62.7562 64.799 68.1347 59.298 68.1347 52.5115C68.1347 35.5072 54.6334 20.4048 36.319 20.4048C26.5953 20.4048 17.1775 24.9561 11.3159 32.8764C4.70296 41.812 3.08516 54.1164 7.44137 68.395C7.78663 69.5267 8.9634 70.1578 10.0698 69.8047C11.1761 69.4515 11.7931 68.2478 11.4479 67.1161Z" fill="#191E24"/>
<path d="M29.2012 78.1849C24.5676 74.1347 20.3773 65.9082 19.1998 57.9755C17.8473 48.8634 20.4278 41.4575 27.2866 37.3015C39.5327 29.8813 53.8476 38.861 53.8476 53.0614C53.8476 54.2469 54.7872 55.208 55.9462 55.208C57.1051 55.208 58.0447 54.2469 58.0447 53.0614C58.0447 35.6098 40.2578 24.4521 25.1476 33.6078C16.654 38.7544 13.4616 47.9163 15.0503 58.6199C16.3736 67.5349 21.0421 76.7001 26.4745 81.4487C27.3556 82.2188 28.6803 82.1125 29.4332 81.2113C30.1861 80.31 30.0823 78.9551 29.2012 78.1849Z" fill="#191E24"/>
<path d="M34.2562 52.3868C34.0822 58.2286 36.8733 65.4425 41.6946 69.6155C46.0599 73.3934 52.4083 74.8605 60.2871 73.8983C61.438 73.7578 62.2595 72.6896 62.1221 71.5125C61.9847 70.3353 60.9404 69.495 59.7896 69.6355C52.9826 70.4667 47.7894 69.2666 44.4056 66.3381C40.6148 63.0571 38.3144 57.1116 38.4513 52.5176C38.4866 51.3327 37.5761 50.3428 36.4177 50.3067C35.2592 50.2706 34.2915 51.2019 34.2562 52.3868Z" fill="#191E24"/>
</svg>
