<svg width="68" height="72" viewBox="0 0 68 72" fill="none" xmlns="http://www.w3.org/2000/svg">
<path d="M14.6665 60C14.6665 60 23.9998 56 26.6665 53.3333C29.3332 50.6667 21.3332 50.6667 21.3332 37.3333C21.3332 24 31.9998 24 31.9998 24C31.9998 24 42.6665 24 42.6665 37.3333C42.6665 50.6667 34.6665 50.6667 37.3332 53.3333C39.9998 56 49.3332 60 49.3332 60" stroke="white" stroke-width="3" stroke-linecap="round"/>
<path fill-rule="evenodd" clip-rule="evenodd" d="M32.0002 66.6667C46.7278 66.6667 58.6668 54.7276 58.6668 40C58.6668 25.2724 46.7278 13.3334 32.0002 13.3334C17.2726 13.3334 5.3335 25.2724 5.3335 40C5.3335 54.7276 17.2726 66.6667 32.0002 66.6667Z" stroke="white" stroke-width="3"/>
<circle cx="53.5" cy="14.5" r="14.5" fill="white"/>
<path d="M48.6665 14.6666L51.9998 18L59.3332 10.6666" stroke="#00854F" stroke-width="2" stroke-linecap="round"/>
</svg>
